<mxfile host="app.diagrams.net" modified="2024-07-09T05:05:10.700Z" agent="Mozilla/5.0 (Windows NT 10.0; Win64; x64) AppleWebKit/537.36 (KHTML, like Gecko) Chrome/126.0.0.0 Safari/537.36 Edg/126.0.0.0" etag="4fQROeYYINMojdV1xvG8" version="24.6.4" type="onedrive">
  <diagram name="ページ1" id="7ljibLevjvBT13dit-Yx">
    <mxGraphModel grid="1" page="0" gridSize="10" guides="1" tooltips="1" connect="1" arrows="1" fold="1" pageScale="1" pageWidth="827" pageHeight="1169" math="0" shadow="0">
      <root>
        <mxCell id="0" />
        <mxCell id="1" parent="0" />
        <mxCell id="7W7farrHlQZaAxyXejWY-37" style="edgeStyle=none;curved=1;rounded=0;orthogonalLoop=1;jettySize=auto;html=1;exitX=0.5;exitY=1;exitDx=0;exitDy=0;entryX=0.5;entryY=0;entryDx=0;entryDy=0;fontSize=12;startSize=8;endSize=8;" edge="1" parent="1" source="7W7farrHlQZaAxyXejWY-1" target="7W7farrHlQZaAxyXejWY-2">
          <mxGeometry relative="1" as="geometry" />
        </mxCell>
        <mxCell id="7W7farrHlQZaAxyXejWY-1" value="全探索関数&lt;div&gt;all_search(n:int)&lt;br&gt;&lt;/div&gt;&lt;div&gt;開始&lt;/div&gt;" style="rounded=0;whiteSpace=wrap;html=1;" vertex="1" parent="1">
          <mxGeometry x="120" y="-120" width="120" height="60" as="geometry" />
        </mxCell>
        <mxCell id="7W7farrHlQZaAxyXejWY-38" style="edgeStyle=none;curved=1;rounded=0;orthogonalLoop=1;jettySize=auto;html=1;exitX=0.5;exitY=1;exitDx=0;exitDy=0;fontSize=12;startSize=8;endSize=8;" edge="1" parent="1" source="7W7farrHlQZaAxyXejWY-2" target="7W7farrHlQZaAxyXejWY-3">
          <mxGeometry relative="1" as="geometry" />
        </mxCell>
        <mxCell id="7W7farrHlQZaAxyXejWY-2" value="グローバル変数&lt;div&gt;tlist, max, max_list, dの定義&lt;br&gt;&lt;/div&gt;" style="rounded=1;whiteSpace=wrap;html=1;" vertex="1" parent="1">
          <mxGeometry x="120" y="-30" width="120" height="60" as="geometry" />
        </mxCell>
        <mxCell id="7W7farrHlQZaAxyXejWY-39" style="edgeStyle=none;curved=1;rounded=0;orthogonalLoop=1;jettySize=auto;html=1;exitX=0.5;exitY=1;exitDx=0;exitDy=0;entryX=0.5;entryY=0;entryDx=0;entryDy=0;fontSize=12;startSize=8;endSize=8;" edge="1" parent="1" source="7W7farrHlQZaAxyXejWY-3" target="7W7farrHlQZaAxyXejWY-4">
          <mxGeometry relative="1" as="geometry" />
        </mxCell>
        <mxCell id="7W7farrHlQZaAxyXejWY-3" value="リスト&lt;div&gt;numlist = []&lt;br&gt;&lt;/div&gt;" style="rounded=1;whiteSpace=wrap;html=1;" vertex="1" parent="1">
          <mxGeometry x="120" y="60" width="120" height="60" as="geometry" />
        </mxCell>
        <mxCell id="7W7farrHlQZaAxyXejWY-40" style="edgeStyle=none;curved=1;rounded=0;orthogonalLoop=1;jettySize=auto;html=1;exitX=0.5;exitY=1;exitDx=0;exitDy=0;entryX=0.5;entryY=0;entryDx=0;entryDy=0;fontSize=12;startSize=8;endSize=8;" edge="1" parent="1" source="7W7farrHlQZaAxyXejWY-4" target="7W7farrHlQZaAxyXejWY-5">
          <mxGeometry relative="1" as="geometry" />
        </mxCell>
        <mxCell id="7W7farrHlQZaAxyXejWY-4" value="&lt;div&gt;int型変数&lt;/div&gt;max = 0" style="rounded=1;whiteSpace=wrap;html=1;" vertex="1" parent="1">
          <mxGeometry x="120" y="150" width="120" height="60" as="geometry" />
        </mxCell>
        <mxCell id="7W7farrHlQZaAxyXejWY-11" style="edgeStyle=none;curved=1;rounded=0;orthogonalLoop=1;jettySize=auto;html=1;exitX=0.5;exitY=1;exitDx=0;exitDy=0;entryX=0.5;entryY=0;entryDx=0;entryDy=0;fontSize=12;startSize=8;endSize=8;" edge="1" parent="1" source="7W7farrHlQZaAxyXejWY-5" target="7W7farrHlQZaAxyXejWY-6">
          <mxGeometry relative="1" as="geometry" />
        </mxCell>
        <mxCell id="7W7farrHlQZaAxyXejWY-5" value="リスト&lt;div&gt;max_list = []&lt;br&gt;&lt;/div&gt;" style="rounded=1;whiteSpace=wrap;html=1;" vertex="1" parent="1">
          <mxGeometry x="120" y="240" width="120" height="60" as="geometry" />
        </mxCell>
        <mxCell id="7W7farrHlQZaAxyXejWY-12" style="edgeStyle=none;curved=1;rounded=0;orthogonalLoop=1;jettySize=auto;html=1;exitX=0.5;exitY=1;exitDx=0;exitDy=0;entryX=0.5;entryY=0;entryDx=0;entryDy=0;fontSize=12;startSize=8;endSize=8;" edge="1" parent="1" source="7W7farrHlQZaAxyXejWY-6" target="7W7farrHlQZaAxyXejWY-7">
          <mxGeometry relative="1" as="geometry" />
        </mxCell>
        <mxCell id="7W7farrHlQZaAxyXejWY-6" value="for&lt;div&gt;i ←（len(d)）&lt;/div&gt;" style="rhombus;whiteSpace=wrap;html=1;" vertex="1" parent="1">
          <mxGeometry x="110" y="330" width="140" height="80" as="geometry" />
        </mxCell>
        <mxCell id="7W7farrHlQZaAxyXejWY-7" value="numlist.append(i+1)" style="rounded=1;whiteSpace=wrap;html=1;" vertex="1" parent="1">
          <mxGeometry x="120" y="440" width="120" height="60" as="geometry" />
        </mxCell>
        <mxCell id="7W7farrHlQZaAxyXejWY-8" value="" style="endArrow=none;html=1;rounded=0;fontSize=12;startSize=8;endSize=8;curved=1;exitX=0.033;exitY=0.639;exitDx=0;exitDy=0;exitPerimeter=0;" edge="1" parent="1" source="7W7farrHlQZaAxyXejWY-7">
          <mxGeometry width="50" height="50" relative="1" as="geometry">
            <mxPoint x="180" y="430" as="sourcePoint" />
            <mxPoint x="90" y="478" as="targetPoint" />
          </mxGeometry>
        </mxCell>
        <mxCell id="7W7farrHlQZaAxyXejWY-9" value="" style="endArrow=none;html=1;rounded=0;fontSize=12;startSize=8;endSize=8;curved=1;" edge="1" parent="1">
          <mxGeometry width="50" height="50" relative="1" as="geometry">
            <mxPoint x="90" y="480" as="sourcePoint" />
            <mxPoint x="90" y="370" as="targetPoint" />
          </mxGeometry>
        </mxCell>
        <mxCell id="7W7farrHlQZaAxyXejWY-10" value="" style="endArrow=classic;html=1;rounded=0;fontSize=12;startSize=8;endSize=8;curved=1;entryX=0;entryY=0.5;entryDx=0;entryDy=0;" edge="1" parent="1" target="7W7farrHlQZaAxyXejWY-6">
          <mxGeometry width="50" height="50" relative="1" as="geometry">
            <mxPoint x="90" y="370" as="sourcePoint" />
            <mxPoint x="230" y="380" as="targetPoint" />
          </mxGeometry>
        </mxCell>
        <mxCell id="7W7farrHlQZaAxyXejWY-21" style="edgeStyle=none;curved=1;rounded=0;orthogonalLoop=1;jettySize=auto;html=1;exitX=0.5;exitY=1;exitDx=0;exitDy=0;entryX=0.5;entryY=0;entryDx=0;entryDy=0;fontSize=12;startSize=8;endSize=8;" edge="1" parent="1" source="7W7farrHlQZaAxyXejWY-13" target="7W7farrHlQZaAxyXejWY-19">
          <mxGeometry relative="1" as="geometry" />
        </mxCell>
        <mxCell id="7W7farrHlQZaAxyXejWY-13" value="num_com = list(itertools.&lt;div&gt;combinations(numlist,n))&lt;/div&gt;" style="rounded=1;whiteSpace=wrap;html=1;" vertex="1" parent="1">
          <mxGeometry x="120" y="530" width="120" height="60" as="geometry" />
        </mxCell>
        <mxCell id="7W7farrHlQZaAxyXejWY-14" value="" style="endArrow=none;html=1;rounded=0;fontSize=12;startSize=8;endSize=8;curved=1;entryX=1;entryY=0.5;entryDx=0;entryDy=0;" edge="1" parent="1" target="7W7farrHlQZaAxyXejWY-6">
          <mxGeometry width="50" height="50" relative="1" as="geometry">
            <mxPoint x="280" y="370" as="sourcePoint" />
            <mxPoint x="230" y="480" as="targetPoint" />
          </mxGeometry>
        </mxCell>
        <mxCell id="7W7farrHlQZaAxyXejWY-15" value="" style="endArrow=none;html=1;rounded=0;fontSize=12;startSize=8;endSize=8;curved=1;" edge="1" parent="1">
          <mxGeometry width="50" height="50" relative="1" as="geometry">
            <mxPoint x="280" y="560" as="sourcePoint" />
            <mxPoint x="280" y="370" as="targetPoint" />
          </mxGeometry>
        </mxCell>
        <mxCell id="7W7farrHlQZaAxyXejWY-16" value="" style="endArrow=classic;html=1;rounded=0;fontSize=12;startSize=8;endSize=8;curved=1;entryX=1;entryY=0.5;entryDx=0;entryDy=0;" edge="1" parent="1" target="7W7farrHlQZaAxyXejWY-13">
          <mxGeometry width="50" height="50" relative="1" as="geometry">
            <mxPoint x="280" y="560" as="sourcePoint" />
            <mxPoint x="230" y="480" as="targetPoint" />
          </mxGeometry>
        </mxCell>
        <mxCell id="7W7farrHlQZaAxyXejWY-17" value="False" style="text;html=1;align=center;verticalAlign=middle;resizable=0;points=[];autosize=1;strokeColor=none;fillColor=none;fontSize=16;" vertex="1" parent="1">
          <mxGeometry x="224" y="331" width="60" height="30" as="geometry" />
        </mxCell>
        <mxCell id="7W7farrHlQZaAxyXejWY-18" value="True" style="text;html=1;align=center;verticalAlign=middle;resizable=0;points=[];autosize=1;strokeColor=none;fillColor=none;fontSize=16;" vertex="1" parent="1">
          <mxGeometry x="174" y="401" width="60" height="30" as="geometry" />
        </mxCell>
        <mxCell id="7W7farrHlQZaAxyXejWY-22" style="edgeStyle=none;curved=1;rounded=0;orthogonalLoop=1;jettySize=auto;html=1;exitX=0.5;exitY=1;exitDx=0;exitDy=0;entryX=0.5;entryY=0;entryDx=0;entryDy=0;fontSize=12;startSize=8;endSize=8;" edge="1" parent="1" source="7W7farrHlQZaAxyXejWY-19" target="7W7farrHlQZaAxyXejWY-20">
          <mxGeometry relative="1" as="geometry" />
        </mxCell>
        <mxCell id="7W7farrHlQZaAxyXejWY-19" value="cList = tlist.head" style="rounded=1;whiteSpace=wrap;html=1;" vertex="1" parent="1">
          <mxGeometry x="120" y="620" width="120" height="60" as="geometry" />
        </mxCell>
        <mxCell id="7W7farrHlQZaAxyXejWY-42" style="edgeStyle=none;curved=1;rounded=0;orthogonalLoop=1;jettySize=auto;html=1;exitX=0.5;exitY=1;exitDx=0;exitDy=0;fontSize=12;startSize=8;endSize=8;" edge="1" parent="1" source="7W7farrHlQZaAxyXejWY-20">
          <mxGeometry relative="1" as="geometry">
            <mxPoint x="180" y="820" as="targetPoint" />
          </mxGeometry>
        </mxCell>
        <mxCell id="7W7farrHlQZaAxyXejWY-20" value="for&lt;div&gt;j ←（num_com）&lt;/div&gt;" style="rhombus;whiteSpace=wrap;html=1;" vertex="1" parent="1">
          <mxGeometry x="110" y="710" width="140" height="80" as="geometry" />
        </mxCell>
        <mxCell id="7W7farrHlQZaAxyXejWY-45" style="edgeStyle=none;curved=1;rounded=0;orthogonalLoop=1;jettySize=auto;html=1;exitX=0.5;exitY=1;exitDx=0;exitDy=0;entryX=0.5;entryY=0;entryDx=0;entryDy=0;fontSize=12;startSize=8;endSize=8;" edge="1" parent="1" source="7W7farrHlQZaAxyXejWY-23" target="7W7farrHlQZaAxyXejWY-26">
          <mxGeometry relative="1" as="geometry" />
        </mxCell>
        <mxCell id="7W7farrHlQZaAxyXejWY-23" value="flag = 0" style="rounded=1;whiteSpace=wrap;html=1;" vertex="1" parent="1">
          <mxGeometry x="120" y="1000" width="120" height="60" as="geometry" />
        </mxCell>
        <mxCell id="7W7farrHlQZaAxyXejWY-44" style="edgeStyle=none;curved=1;rounded=0;orthogonalLoop=1;jettySize=auto;html=1;exitX=0.5;exitY=1;exitDx=0;exitDy=0;entryX=0.5;entryY=0;entryDx=0;entryDy=0;fontSize=12;startSize=8;endSize=8;" edge="1" parent="1" source="7W7farrHlQZaAxyXejWY-24" target="7W7farrHlQZaAxyXejWY-23">
          <mxGeometry relative="1" as="geometry" />
        </mxCell>
        <mxCell id="7W7farrHlQZaAxyXejWY-24" value="start = cList.num" style="rounded=1;whiteSpace=wrap;html=1;" vertex="1" parent="1">
          <mxGeometry x="120" y="910" width="120" height="60" as="geometry" />
        </mxCell>
        <mxCell id="7W7farrHlQZaAxyXejWY-43" style="edgeStyle=none;curved=1;rounded=0;orthogonalLoop=1;jettySize=auto;html=1;exitX=0.5;exitY=1;exitDx=0;exitDy=0;entryX=0.5;entryY=0;entryDx=0;entryDy=0;fontSize=12;startSize=8;endSize=8;" edge="1" parent="1" source="7W7farrHlQZaAxyXejWY-25" target="7W7farrHlQZaAxyXejWY-24">
          <mxGeometry relative="1" as="geometry" />
        </mxCell>
        <mxCell id="7W7farrHlQZaAxyXejWY-25" value="dis = [0] * n" style="rounded=1;whiteSpace=wrap;html=1;" vertex="1" parent="1">
          <mxGeometry x="120" y="820" width="120" height="60" as="geometry" />
        </mxCell>
        <mxCell id="7W7farrHlQZaAxyXejWY-47" style="edgeStyle=none;curved=1;rounded=0;orthogonalLoop=1;jettySize=auto;html=1;exitX=0.5;exitY=1;exitDx=0;exitDy=0;entryX=0.5;entryY=0;entryDx=0;entryDy=0;fontSize=12;startSize=8;endSize=8;" edge="1" parent="1" source="7W7farrHlQZaAxyXejWY-26" target="7W7farrHlQZaAxyXejWY-27">
          <mxGeometry relative="1" as="geometry" />
        </mxCell>
        <mxCell id="7W7farrHlQZaAxyXejWY-26" value="for i in range(len(j))" style="rhombus;whiteSpace=wrap;html=1;" vertex="1" parent="1">
          <mxGeometry x="110" y="1090" width="140" height="80" as="geometry" />
        </mxCell>
        <mxCell id="7W7farrHlQZaAxyXejWY-48" style="edgeStyle=none;curved=1;rounded=0;orthogonalLoop=1;jettySize=auto;html=1;exitX=0.5;exitY=1;exitDx=0;exitDy=0;entryX=0.5;entryY=0;entryDx=0;entryDy=0;fontSize=12;startSize=8;endSize=8;" edge="1" parent="1" source="7W7farrHlQZaAxyXejWY-27" target="7W7farrHlQZaAxyXejWY-28">
          <mxGeometry relative="1" as="geometry" />
        </mxCell>
        <mxCell id="7W7farrHlQZaAxyXejWY-27" value="if&amp;nbsp;&lt;div&gt;j[i] == j[len(j)-1]&lt;/div&gt;" style="rhombus;whiteSpace=wrap;html=1;" vertex="1" parent="1">
          <mxGeometry x="110" y="1200" width="140" height="80" as="geometry" />
        </mxCell>
        <mxCell id="7W7farrHlQZaAxyXejWY-49" style="edgeStyle=none;curved=1;rounded=0;orthogonalLoop=1;jettySize=auto;html=1;exitX=0.5;exitY=1;exitDx=0;exitDy=0;entryX=0.5;entryY=0;entryDx=0;entryDy=0;fontSize=12;startSize=8;endSize=8;" edge="1" parent="1" source="7W7farrHlQZaAxyXejWY-28" target="7W7farrHlQZaAxyXejWY-29">
          <mxGeometry relative="1" as="geometry" />
        </mxCell>
        <mxCell id="7W7farrHlQZaAxyXejWY-28" value="while&lt;div&gt;True&lt;/div&gt;" style="rhombus;whiteSpace=wrap;html=1;" vertex="1" parent="1">
          <mxGeometry x="110" y="1310" width="140" height="80" as="geometry" />
        </mxCell>
        <mxCell id="7W7farrHlQZaAxyXejWY-54" style="edgeStyle=none;curved=1;rounded=0;orthogonalLoop=1;jettySize=auto;html=1;exitX=0.5;exitY=1;exitDx=0;exitDy=0;entryX=0.5;entryY=0;entryDx=0;entryDy=0;fontSize=12;startSize=8;endSize=8;" edge="1" parent="1" source="7W7farrHlQZaAxyXejWY-29" target="7W7farrHlQZaAxyXejWY-33">
          <mxGeometry relative="1" as="geometry" />
        </mxCell>
        <mxCell id="7W7farrHlQZaAxyXejWY-29" value="if&amp;nbsp;&lt;div&gt;cList.next.num&lt;div&gt;&amp;nbsp;== start&lt;/div&gt;&lt;/div&gt;" style="rhombus;whiteSpace=wrap;html=1;" vertex="1" parent="1">
          <mxGeometry x="110" y="1420" width="140" height="80" as="geometry" />
        </mxCell>
        <mxCell id="7W7farrHlQZaAxyXejWY-55" style="edgeStyle=none;curved=1;rounded=0;orthogonalLoop=1;jettySize=auto;html=1;exitX=0.5;exitY=1;exitDx=0;exitDy=0;entryX=0.5;entryY=0;entryDx=0;entryDy=0;fontSize=12;startSize=8;endSize=8;" edge="1" parent="1" source="7W7farrHlQZaAxyXejWY-30" target="7W7farrHlQZaAxyXejWY-32">
          <mxGeometry relative="1" as="geometry" />
        </mxCell>
        <mxCell id="7W7farrHlQZaAxyXejWY-30" value="if&amp;nbsp;&lt;div&gt;flag == 1&lt;/div&gt;" style="rhombus;whiteSpace=wrap;html=1;" vertex="1" parent="1">
          <mxGeometry x="-50" y="1420" width="140" height="80" as="geometry" />
        </mxCell>
        <mxCell id="7W7farrHlQZaAxyXejWY-56" style="edgeStyle=none;curved=1;rounded=0;orthogonalLoop=1;jettySize=auto;html=1;exitX=0.5;exitY=1;exitDx=0;exitDy=0;entryX=0.5;entryY=0;entryDx=0;entryDy=0;fontSize=12;startSize=8;endSize=8;" edge="1" parent="1" source="7W7farrHlQZaAxyXejWY-31" target="7W7farrHlQZaAxyXejWY-34">
          <mxGeometry relative="1" as="geometry" />
        </mxCell>
        <mxCell id="7W7farrHlQZaAxyXejWY-31" value="if&amp;nbsp;&lt;div&gt;cList.num &amp;lt; j[0]&lt;/div&gt;&lt;div&gt;&amp;nbsp;or cList.num&amp;nbsp;&lt;/div&gt;&lt;div&gt;&amp;gt; j[len(j)-1]&lt;/div&gt;" style="rhombus;whiteSpace=wrap;html=1;" vertex="1" parent="1">
          <mxGeometry x="270" y="1420" width="140" height="80" as="geometry" />
        </mxCell>
        <mxCell id="7W7farrHlQZaAxyXejWY-32" value="break" style="rounded=1;whiteSpace=wrap;html=1;" vertex="1" parent="1">
          <mxGeometry x="-40" y="1520" width="120" height="60" as="geometry" />
        </mxCell>
        <mxCell id="7W7farrHlQZaAxyXejWY-57" style="edgeStyle=none;curved=1;rounded=0;orthogonalLoop=1;jettySize=auto;html=1;exitX=0.5;exitY=1;exitDx=0;exitDy=0;entryX=0.5;entryY=0;entryDx=0;entryDy=0;fontSize=12;startSize=8;endSize=8;" edge="1" parent="1" source="7W7farrHlQZaAxyXejWY-33" target="7W7farrHlQZaAxyXejWY-35">
          <mxGeometry relative="1" as="geometry" />
        </mxCell>
        <mxCell id="7W7farrHlQZaAxyXejWY-33" value="flag = 1" style="rounded=1;whiteSpace=wrap;html=1;" vertex="1" parent="1">
          <mxGeometry x="120" y="1520" width="120" height="60" as="geometry" />
        </mxCell>
        <mxCell id="7W7farrHlQZaAxyXejWY-34" value="dis[n-1] += cList.dis" style="rounded=1;whiteSpace=wrap;html=1;" vertex="1" parent="1">
          <mxGeometry x="280" y="1520" width="120" height="60" as="geometry" />
        </mxCell>
        <mxCell id="7W7farrHlQZaAxyXejWY-35" value="flag = 0" style="rounded=1;whiteSpace=wrap;html=1;" vertex="1" parent="1">
          <mxGeometry x="120" y="1620" width="120" height="60" as="geometry" />
        </mxCell>
        <mxCell id="7W7farrHlQZaAxyXejWY-41" style="edgeStyle=none;curved=1;rounded=0;orthogonalLoop=1;jettySize=auto;html=1;entryX=0.5;entryY=0;entryDx=0;entryDy=0;fontSize=12;startSize=8;endSize=8;" edge="1" parent="1" source="7W7farrHlQZaAxyXejWY-25" target="7W7farrHlQZaAxyXejWY-25">
          <mxGeometry relative="1" as="geometry" />
        </mxCell>
        <mxCell id="7W7farrHlQZaAxyXejWY-50" value="" style="endArrow=none;html=1;rounded=0;fontSize=12;startSize=8;endSize=8;curved=1;entryX=0;entryY=0.5;entryDx=0;entryDy=0;" edge="1" parent="1" target="7W7farrHlQZaAxyXejWY-28">
          <mxGeometry width="50" height="50" relative="1" as="geometry">
            <mxPoint x="20" y="1350" as="sourcePoint" />
            <mxPoint x="109" y="1357" as="targetPoint" />
          </mxGeometry>
        </mxCell>
        <mxCell id="7W7farrHlQZaAxyXejWY-51" value="" style="endArrow=classic;html=1;rounded=0;fontSize=12;startSize=8;endSize=8;curved=1;entryX=0.5;entryY=0;entryDx=0;entryDy=0;" edge="1" parent="1" target="7W7farrHlQZaAxyXejWY-30">
          <mxGeometry width="50" height="50" relative="1" as="geometry">
            <mxPoint x="20" y="1350" as="sourcePoint" />
            <mxPoint x="220" y="1380" as="targetPoint" />
          </mxGeometry>
        </mxCell>
        <mxCell id="7W7farrHlQZaAxyXejWY-52" value="" style="endArrow=none;html=1;rounded=0;fontSize=12;startSize=8;endSize=8;curved=1;entryX=1;entryY=0.5;entryDx=0;entryDy=0;" edge="1" parent="1" target="7W7farrHlQZaAxyXejWY-28">
          <mxGeometry width="50" height="50" relative="1" as="geometry">
            <mxPoint x="340" y="1350" as="sourcePoint" />
            <mxPoint x="220" y="1380" as="targetPoint" />
          </mxGeometry>
        </mxCell>
        <mxCell id="7W7farrHlQZaAxyXejWY-53" value="" style="endArrow=classic;html=1;rounded=0;fontSize=12;startSize=8;endSize=8;curved=1;entryX=0.5;entryY=0;entryDx=0;entryDy=0;" edge="1" parent="1" target="7W7farrHlQZaAxyXejWY-31">
          <mxGeometry width="50" height="50" relative="1" as="geometry">
            <mxPoint x="340" y="1350" as="sourcePoint" />
            <mxPoint x="220" y="1380" as="targetPoint" />
          </mxGeometry>
        </mxCell>
        <mxCell id="7W7farrHlQZaAxyXejWY-58" value="" style="endArrow=none;html=1;rounded=0;fontSize=12;startSize=8;endSize=8;curved=1;entryX=0.5;entryY=1;entryDx=0;entryDy=0;" edge="1" parent="1" target="7W7farrHlQZaAxyXejWY-32">
          <mxGeometry width="50" height="50" relative="1" as="geometry">
            <mxPoint x="20" y="1650" as="sourcePoint" />
            <mxPoint x="220" y="1780" as="targetPoint" />
          </mxGeometry>
        </mxCell>
        <mxCell id="7W7farrHlQZaAxyXejWY-59" value="" style="endArrow=none;html=1;rounded=0;fontSize=12;startSize=8;endSize=8;curved=1;entryX=0.5;entryY=1;entryDx=0;entryDy=0;" edge="1" parent="1" target="7W7farrHlQZaAxyXejWY-34">
          <mxGeometry width="50" height="50" relative="1" as="geometry">
            <mxPoint x="340" y="1650" as="sourcePoint" />
            <mxPoint x="220" y="1780" as="targetPoint" />
          </mxGeometry>
        </mxCell>
        <mxCell id="7W7farrHlQZaAxyXejWY-60" value="" style="endArrow=classic;html=1;rounded=0;fontSize=12;startSize=8;endSize=8;curved=1;entryX=0;entryY=0.5;entryDx=0;entryDy=0;" edge="1" parent="1" target="7W7farrHlQZaAxyXejWY-35">
          <mxGeometry width="50" height="50" relative="1" as="geometry">
            <mxPoint x="20" y="1650" as="sourcePoint" />
            <mxPoint x="270" y="1710" as="targetPoint" />
          </mxGeometry>
        </mxCell>
        <mxCell id="7W7farrHlQZaAxyXejWY-61" value="" style="endArrow=classic;html=1;rounded=0;fontSize=12;startSize=8;endSize=8;curved=1;" edge="1" parent="1" target="7W7farrHlQZaAxyXejWY-35">
          <mxGeometry width="50" height="50" relative="1" as="geometry">
            <mxPoint x="340" y="1650" as="sourcePoint" />
            <mxPoint x="270" y="1710" as="targetPoint" />
          </mxGeometry>
        </mxCell>
        <mxCell id="7W7farrHlQZaAxyXejWY-73" style="edgeStyle=none;curved=1;rounded=0;orthogonalLoop=1;jettySize=auto;html=1;exitX=0.5;exitY=1;exitDx=0;exitDy=0;entryX=0.5;entryY=0;entryDx=0;entryDy=0;fontSize=12;startSize=8;endSize=8;" edge="1" parent="1" source="7W7farrHlQZaAxyXejWY-64" target="7W7farrHlQZaAxyXejWY-69">
          <mxGeometry relative="1" as="geometry" />
        </mxCell>
        <mxCell id="7W7farrHlQZaAxyXejWY-64" value="&lt;div&gt;&lt;br&gt;&lt;/div&gt;else&lt;div&gt;&lt;br&gt;&lt;/div&gt;" style="rhombus;whiteSpace=wrap;html=1;" vertex="1" parent="1">
          <mxGeometry x="110" y="1720" width="140" height="80" as="geometry" />
        </mxCell>
        <mxCell id="7W7farrHlQZaAxyXejWY-65" value="" style="endArrow=none;html=1;rounded=0;fontSize=12;startSize=8;endSize=8;curved=1;entryX=0;entryY=0.5;entryDx=0;entryDy=0;" edge="1" parent="1" target="7W7farrHlQZaAxyXejWY-26">
          <mxGeometry width="50" height="50" relative="1" as="geometry">
            <mxPoint x="-80" y="1130" as="sourcePoint" />
            <mxPoint x="240" y="1430" as="targetPoint" />
          </mxGeometry>
        </mxCell>
        <mxCell id="7W7farrHlQZaAxyXejWY-66" value="" style="endArrow=none;html=1;rounded=0;fontSize=12;startSize=8;endSize=8;curved=1;" edge="1" parent="1">
          <mxGeometry width="50" height="50" relative="1" as="geometry">
            <mxPoint x="-80" y="1760" as="sourcePoint" />
            <mxPoint x="-80" y="1130" as="targetPoint" />
          </mxGeometry>
        </mxCell>
        <mxCell id="7W7farrHlQZaAxyXejWY-67" value="" style="endArrow=classic;html=1;rounded=0;fontSize=12;startSize=8;endSize=8;curved=1;entryX=0;entryY=0.5;entryDx=0;entryDy=0;" edge="1" parent="1" target="7W7farrHlQZaAxyXejWY-64">
          <mxGeometry width="50" height="50" relative="1" as="geometry">
            <mxPoint x="-80" y="1760" as="sourcePoint" />
            <mxPoint x="240" y="1430" as="targetPoint" />
          </mxGeometry>
        </mxCell>
        <mxCell id="7W7farrHlQZaAxyXejWY-74" style="edgeStyle=none;curved=1;rounded=0;orthogonalLoop=1;jettySize=auto;html=1;exitX=0.5;exitY=1;exitDx=0;exitDy=0;entryX=0.5;entryY=0;entryDx=0;entryDy=0;fontSize=12;startSize=8;endSize=8;" edge="1" parent="1" source="7W7farrHlQZaAxyXejWY-69" target="7W7farrHlQZaAxyXejWY-70">
          <mxGeometry relative="1" as="geometry" />
        </mxCell>
        <mxCell id="7W7farrHlQZaAxyXejWY-69" value="while&lt;div&gt;True&lt;/div&gt;" style="rhombus;whiteSpace=wrap;html=1;" vertex="1" parent="1">
          <mxGeometry x="110" y="1830" width="140" height="80" as="geometry" />
        </mxCell>
        <mxCell id="7W7farrHlQZaAxyXejWY-83" style="edgeStyle=none;curved=1;rounded=0;orthogonalLoop=1;jettySize=auto;html=1;exitX=0.5;exitY=1;exitDx=0;exitDy=0;fontSize=12;startSize=8;endSize=8;" edge="1" parent="1" source="7W7farrHlQZaAxyXejWY-70" target="7W7farrHlQZaAxyXejWY-80">
          <mxGeometry relative="1" as="geometry" />
        </mxCell>
        <mxCell id="7W7farrHlQZaAxyXejWY-70" value="if&amp;nbsp;&lt;div&gt;cList.next.num == start&lt;/div&gt;" style="rhombus;whiteSpace=wrap;html=1;" vertex="1" parent="1">
          <mxGeometry x="105" y="1940" width="150" height="80" as="geometry" />
        </mxCell>
        <mxCell id="7W7farrHlQZaAxyXejWY-71" value="if&amp;nbsp;&lt;div&gt;cList.num &amp;gt; j[i] and cList.num &amp;lt; j[i+1]&lt;/div&gt;" style="rhombus;whiteSpace=wrap;html=1;" vertex="1" parent="1">
          <mxGeometry x="270" y="1940" width="150" height="80" as="geometry" />
        </mxCell>
        <mxCell id="7W7farrHlQZaAxyXejWY-82" style="edgeStyle=none;curved=1;rounded=0;orthogonalLoop=1;jettySize=auto;html=1;exitX=0.5;exitY=1;exitDx=0;exitDy=0;entryX=0.5;entryY=0;entryDx=0;entryDy=0;fontSize=12;startSize=8;endSize=8;" edge="1" parent="1" source="7W7farrHlQZaAxyXejWY-72" target="7W7farrHlQZaAxyXejWY-81">
          <mxGeometry relative="1" as="geometry" />
        </mxCell>
        <mxCell id="7W7farrHlQZaAxyXejWY-72" value="if&lt;div&gt;&amp;nbsp;flag == 1&lt;/div&gt;" style="rhombus;whiteSpace=wrap;html=1;" vertex="1" parent="1">
          <mxGeometry x="-60" y="1940" width="150" height="80" as="geometry" />
        </mxCell>
        <mxCell id="7W7farrHlQZaAxyXejWY-75" value="" style="endArrow=none;html=1;rounded=0;fontSize=12;startSize=8;endSize=8;curved=1;entryX=0;entryY=0.5;entryDx=0;entryDy=0;" edge="1" parent="1" target="7W7farrHlQZaAxyXejWY-69">
          <mxGeometry width="50" height="50" relative="1" as="geometry">
            <mxPoint x="10" y="1870" as="sourcePoint" />
            <mxPoint x="210" y="1910" as="targetPoint" />
          </mxGeometry>
        </mxCell>
        <mxCell id="7W7farrHlQZaAxyXejWY-76" value="" style="endArrow=none;html=1;rounded=0;fontSize=12;startSize=8;endSize=8;curved=1;entryX=1;entryY=0.5;entryDx=0;entryDy=0;" edge="1" parent="1" target="7W7farrHlQZaAxyXejWY-69">
          <mxGeometry width="50" height="50" relative="1" as="geometry">
            <mxPoint x="350" y="1870" as="sourcePoint" />
            <mxPoint x="210" y="1910" as="targetPoint" />
          </mxGeometry>
        </mxCell>
        <mxCell id="7W7farrHlQZaAxyXejWY-77" value="" style="endArrow=classic;html=1;rounded=0;fontSize=12;startSize=8;endSize=8;curved=1;entryX=0.5;entryY=0;entryDx=0;entryDy=0;" edge="1" parent="1" target="7W7farrHlQZaAxyXejWY-71">
          <mxGeometry width="50" height="50" relative="1" as="geometry">
            <mxPoint x="345" y="1870" as="sourcePoint" />
            <mxPoint x="210" y="1910" as="targetPoint" />
          </mxGeometry>
        </mxCell>
        <mxCell id="7W7farrHlQZaAxyXejWY-78" value="" style="endArrow=classic;html=1;rounded=0;fontSize=12;startSize=8;endSize=8;curved=1;entryX=0.5;entryY=0;entryDx=0;entryDy=0;" edge="1" parent="1" target="7W7farrHlQZaAxyXejWY-72">
          <mxGeometry width="50" height="50" relative="1" as="geometry">
            <mxPoint x="15" y="1870" as="sourcePoint" />
            <mxPoint x="7" y="1941" as="targetPoint" />
          </mxGeometry>
        </mxCell>
        <mxCell id="7W7farrHlQZaAxyXejWY-79" value="dis[i] += cList.dis" style="rounded=1;whiteSpace=wrap;html=1;" vertex="1" parent="1">
          <mxGeometry x="285" y="2040" width="120" height="60" as="geometry" />
        </mxCell>
        <mxCell id="7W7farrHlQZaAxyXejWY-86" style="edgeStyle=none;curved=1;rounded=0;orthogonalLoop=1;jettySize=auto;html=1;exitX=0.5;exitY=1;exitDx=0;exitDy=0;entryX=0.5;entryY=0;entryDx=0;entryDy=0;fontSize=12;startSize=8;endSize=8;" edge="1" parent="1" source="7W7farrHlQZaAxyXejWY-80" target="7W7farrHlQZaAxyXejWY-85">
          <mxGeometry relative="1" as="geometry" />
        </mxCell>
        <mxCell id="7W7farrHlQZaAxyXejWY-80" value="flag = 1" style="rounded=1;whiteSpace=wrap;html=1;" vertex="1" parent="1">
          <mxGeometry x="120" y="2040" width="120" height="60" as="geometry" />
        </mxCell>
        <mxCell id="7W7farrHlQZaAxyXejWY-81" value="break" style="rounded=1;whiteSpace=wrap;html=1;" vertex="1" parent="1">
          <mxGeometry x="-45" y="2040" width="120" height="60" as="geometry" />
        </mxCell>
        <mxCell id="7W7farrHlQZaAxyXejWY-84" style="edgeStyle=none;curved=1;rounded=0;orthogonalLoop=1;jettySize=auto;html=1;exitX=0.5;exitY=1;exitDx=0;exitDy=0;entryX=0.5;entryY=0;entryDx=0;entryDy=0;fontSize=12;startSize=8;endSize=8;" edge="1" parent="1" source="7W7farrHlQZaAxyXejWY-71" target="7W7farrHlQZaAxyXejWY-79">
          <mxGeometry relative="1" as="geometry" />
        </mxCell>
        <mxCell id="7W7farrHlQZaAxyXejWY-93" style="edgeStyle=none;curved=1;rounded=0;orthogonalLoop=1;jettySize=auto;html=1;exitX=0.5;exitY=1;exitDx=0;exitDy=0;entryX=0.5;entryY=0;entryDx=0;entryDy=0;fontSize=12;startSize=8;endSize=8;" edge="1" parent="1" source="7W7farrHlQZaAxyXejWY-85" target="7W7farrHlQZaAxyXejWY-92">
          <mxGeometry relative="1" as="geometry" />
        </mxCell>
        <mxCell id="7W7farrHlQZaAxyXejWY-85" value="cList = cList.next" style="rounded=1;whiteSpace=wrap;html=1;" vertex="1" parent="1">
          <mxGeometry x="120" y="2130" width="120" height="60" as="geometry" />
        </mxCell>
        <mxCell id="7W7farrHlQZaAxyXejWY-87" value="" style="endArrow=none;html=1;rounded=0;fontSize=12;startSize=8;endSize=8;curved=1;entryX=0.5;entryY=1;entryDx=0;entryDy=0;" edge="1" parent="1" target="7W7farrHlQZaAxyXejWY-81">
          <mxGeometry width="50" height="50" relative="1" as="geometry">
            <mxPoint x="15" y="2160" as="sourcePoint" />
            <mxPoint x="210" y="2020" as="targetPoint" />
          </mxGeometry>
        </mxCell>
        <mxCell id="7W7farrHlQZaAxyXejWY-88" value="" style="endArrow=none;html=1;rounded=0;fontSize=12;startSize=8;endSize=8;curved=1;entryX=0.5;entryY=1;entryDx=0;entryDy=0;" edge="1" parent="1">
          <mxGeometry width="50" height="50" relative="1" as="geometry">
            <mxPoint x="344.55" y="2170" as="sourcePoint" />
            <mxPoint x="344.55" y="2100" as="targetPoint" />
          </mxGeometry>
        </mxCell>
        <mxCell id="7W7farrHlQZaAxyXejWY-89" value="" style="endArrow=classic;html=1;rounded=0;fontSize=12;startSize=8;endSize=8;curved=1;entryX=0;entryY=0.5;entryDx=0;entryDy=0;" edge="1" parent="1" target="7W7farrHlQZaAxyXejWY-85">
          <mxGeometry width="50" height="50" relative="1" as="geometry">
            <mxPoint x="10" y="2160" as="sourcePoint" />
            <mxPoint x="180" y="2100" as="targetPoint" />
          </mxGeometry>
        </mxCell>
        <mxCell id="7W7farrHlQZaAxyXejWY-90" value="" style="endArrow=classic;html=1;rounded=0;fontSize=12;startSize=8;endSize=8;curved=1;entryX=1;entryY=0.5;entryDx=0;entryDy=0;" edge="1" parent="1" target="7W7farrHlQZaAxyXejWY-85">
          <mxGeometry width="50" height="50" relative="1" as="geometry">
            <mxPoint x="350" y="2160" as="sourcePoint" />
            <mxPoint x="246" y="2168" as="targetPoint" />
          </mxGeometry>
        </mxCell>
        <mxCell id="7W7farrHlQZaAxyXejWY-95" style="edgeStyle=none;curved=1;rounded=0;orthogonalLoop=1;jettySize=auto;html=1;exitX=0.5;exitY=1;exitDx=0;exitDy=0;entryX=0.5;entryY=0;entryDx=0;entryDy=0;fontSize=12;startSize=8;endSize=8;" edge="1" parent="1" source="7W7farrHlQZaAxyXejWY-92" target="7W7farrHlQZaAxyXejWY-94">
          <mxGeometry relative="1" as="geometry" />
        </mxCell>
        <mxCell id="7W7farrHlQZaAxyXejWY-92" value="flag = 0" style="rounded=1;whiteSpace=wrap;html=1;" vertex="1" parent="1">
          <mxGeometry x="120" y="2220" width="120" height="60" as="geometry" />
        </mxCell>
        <mxCell id="7W7farrHlQZaAxyXejWY-98" style="edgeStyle=none;curved=1;rounded=0;orthogonalLoop=1;jettySize=auto;html=1;exitX=0.5;exitY=1;exitDx=0;exitDy=0;entryX=0.5;entryY=0;entryDx=0;entryDy=0;fontSize=12;startSize=8;endSize=8;" edge="1" parent="1" source="7W7farrHlQZaAxyXejWY-94" target="7W7farrHlQZaAxyXejWY-96">
          <mxGeometry relative="1" as="geometry" />
        </mxCell>
        <mxCell id="7W7farrHlQZaAxyXejWY-94" value="Min = min(dis)" style="rounded=1;whiteSpace=wrap;html=1;" vertex="1" parent="1">
          <mxGeometry x="120" y="2310" width="120" height="60" as="geometry" />
        </mxCell>
        <mxCell id="7W7farrHlQZaAxyXejWY-101" style="edgeStyle=none;curved=1;rounded=0;orthogonalLoop=1;jettySize=auto;html=1;exitX=0.5;exitY=1;exitDx=0;exitDy=0;entryX=0.5;entryY=0;entryDx=0;entryDy=0;fontSize=12;startSize=8;endSize=8;" edge="1" parent="1" source="7W7farrHlQZaAxyXejWY-96" target="7W7farrHlQZaAxyXejWY-100">
          <mxGeometry relative="1" as="geometry" />
        </mxCell>
        <mxCell id="7W7farrHlQZaAxyXejWY-96" value="max &amp;lt; Min" style="rhombus;whiteSpace=wrap;html=1;" vertex="1" parent="1">
          <mxGeometry x="105" y="2390" width="150" height="80" as="geometry" />
        </mxCell>
        <mxCell id="7W7farrHlQZaAxyXejWY-97" style="edgeStyle=none;curved=1;rounded=0;orthogonalLoop=1;jettySize=auto;html=1;exitX=0;exitY=0;exitDx=0;exitDy=0;fontSize=12;startSize=8;endSize=8;" edge="1" parent="1" source="7W7farrHlQZaAxyXejWY-81" target="7W7farrHlQZaAxyXejWY-81">
          <mxGeometry relative="1" as="geometry" />
        </mxCell>
        <mxCell id="7W7farrHlQZaAxyXejWY-107" style="edgeStyle=none;curved=1;rounded=0;orthogonalLoop=1;jettySize=auto;html=1;exitX=0.5;exitY=1;exitDx=0;exitDy=0;entryX=0.5;entryY=0;entryDx=0;entryDy=0;fontSize=12;startSize=8;endSize=8;" edge="1" parent="1" source="7W7farrHlQZaAxyXejWY-99" target="7W7farrHlQZaAxyXejWY-106">
          <mxGeometry relative="1" as="geometry" />
        </mxCell>
        <mxCell id="7W7farrHlQZaAxyXejWY-99" value="max_list = copy.copy(j)" style="rounded=1;whiteSpace=wrap;html=1;" vertex="1" parent="1">
          <mxGeometry x="120" y="2580" width="120" height="60" as="geometry" />
        </mxCell>
        <mxCell id="7W7farrHlQZaAxyXejWY-102" style="edgeStyle=none;curved=1;rounded=0;orthogonalLoop=1;jettySize=auto;html=1;exitX=0.5;exitY=1;exitDx=0;exitDy=0;entryX=0.5;entryY=0;entryDx=0;entryDy=0;fontSize=12;startSize=8;endSize=8;" edge="1" parent="1" source="7W7farrHlQZaAxyXejWY-100" target="7W7farrHlQZaAxyXejWY-99">
          <mxGeometry relative="1" as="geometry" />
        </mxCell>
        <mxCell id="7W7farrHlQZaAxyXejWY-100" value="max = Min" style="rounded=1;whiteSpace=wrap;html=1;" vertex="1" parent="1">
          <mxGeometry x="120" y="2490" width="120" height="60" as="geometry" />
        </mxCell>
        <mxCell id="7W7farrHlQZaAxyXejWY-103" value="" style="endArrow=none;html=1;rounded=0;fontSize=12;startSize=8;endSize=8;curved=1;entryX=1;entryY=0.5;entryDx=0;entryDy=0;" edge="1" parent="1" target="7W7farrHlQZaAxyXejWY-26">
          <mxGeometry width="50" height="50" relative="1" as="geometry">
            <mxPoint x="440" y="1130" as="sourcePoint" />
            <mxPoint x="210" y="1410" as="targetPoint" />
          </mxGeometry>
        </mxCell>
        <mxCell id="7W7farrHlQZaAxyXejWY-104" value="" style="endArrow=none;html=1;rounded=0;fontSize=12;startSize=8;endSize=8;curved=1;" edge="1" parent="1">
          <mxGeometry width="50" height="50" relative="1" as="geometry">
            <mxPoint x="440" y="2610" as="sourcePoint" />
            <mxPoint x="440" y="1140" as="targetPoint" />
          </mxGeometry>
        </mxCell>
        <mxCell id="7W7farrHlQZaAxyXejWY-105" value="" style="endArrow=classic;html=1;rounded=0;fontSize=12;startSize=8;endSize=8;curved=1;entryX=1;entryY=0.5;entryDx=0;entryDy=0;" edge="1" parent="1" target="7W7farrHlQZaAxyXejWY-99">
          <mxGeometry width="50" height="50" relative="1" as="geometry">
            <mxPoint x="440" y="2610" as="sourcePoint" />
            <mxPoint x="210" y="2250" as="targetPoint" />
          </mxGeometry>
        </mxCell>
        <mxCell id="7W7farrHlQZaAxyXejWY-106" value="終了" style="rounded=0;whiteSpace=wrap;html=1;" vertex="1" parent="1">
          <mxGeometry x="120" y="2670" width="120" height="60" as="geometry" />
        </mxCell>
      </root>
    </mxGraphModel>
  </diagram>
</mxfile>
